<svg width="48" height="37" viewBox="0 0 48 37" fill="none" xmlns="http://www.w3.org/2000/svg">
<path d="M46.8896 12.062C46.3477 10.9027 45.4473 10.0669 44.2852 9.64589L44.2695 9.64061C43.7406 9.45415 43.1774 9.35875 42.6094 9.35936H42.5469C39.8867 9.3954 37.1709 11.4301 35.79 14.4227C34.7773 16.6112 34.6611 18.9649 35.4795 20.7192C36.0205 21.8794 36.9229 22.7152 38.0898 23.1362L38.1025 23.1406C38.6315 23.3269 39.1946 23.4223 39.7627 23.4219C42.4482 23.4219 45.1924 21.3872 46.5986 18.355C47.5986 16.1691 47.709 13.8172 46.8896 12.062ZM36.2607 24.9696C34.7266 24.1399 33.2764 23.3551 32.3291 21.9453C29.7158 18.043 28.1377 15.6875 24 15.6875C19.8623 15.6875 18.2803 18.043 15.6611 21.9453C14.7119 23.3568 13.2588 24.1426 11.7197 24.9758C9.95508 25.9303 8.13184 26.9164 7.34473 28.857C7.03874 29.5566 6.88459 30.3025 6.89063 31.0543C6.89063 34.214 9.625 36.7848 12.9844 36.7848C14.7178 36.7848 16.5625 36.2442 18.5147 35.6721C20.3916 35.1219 22.332 34.5532 24.0098 34.5532C25.6875 34.5532 27.623 35.1219 29.4932 35.6721C31.4414 36.2407 33.2773 36.7812 35.0156 36.7812C38.3701 36.7812 41.0996 34.2104 41.0996 31.0508C41.1024 30.2984 40.9449 29.5525 40.6357 28.8535C39.8486 26.9111 38.0244 25.9241 36.2607 24.9696ZM13.6484 12.5981C14.8105 13.9103 16.2852 14.6328 17.8008 14.6328C18.0077 14.6328 18.2143 14.619 18.4189 14.5915C21.5801 14.1731 23.5498 10.7015 22.9033 6.68134C22.6328 4.9912 21.9102 3.41708 20.875 2.24989C19.7148 0.94032 18.2383 0.218738 16.7236 0.218738C16.5167 0.218744 16.3101 0.232551 16.1055 0.260047C12.9443 0.678406 10.9746 4.15009 11.6211 8.1702C11.8906 9.8577 12.6133 11.4301 13.6484 12.5981ZM29.582 14.5915C29.7867 14.619 29.9933 14.6328 30.2002 14.6328C31.7168 14.6328 33.1904 13.9103 34.3525 12.5981C35.3867 11.4301 36.1055 9.8577 36.3789 8.16845C37.0254 4.15009 35.0557 0.678406 31.8945 0.258289C31.6899 0.230793 31.4833 0.216986 31.2764 0.21698C29.7617 0.218738 28.2852 0.94032 27.125 2.24989C26.0898 3.41708 25.3672 4.9912 25.0977 6.68309C24.4512 10.7015 26.4209 14.1731 29.582 14.5915ZM9.89746 23.1406L9.91113 23.1362C11.0762 22.7152 11.9775 21.8803 12.5176 20.721C13.3359 18.9632 13.2207 16.6121 12.21 14.4236C10.8105 11.3949 8.06738 9.35936 5.38477 9.35936C4.81669 9.35862 4.25352 9.45403 3.72461 9.64061L3.71094 9.64501C2.54883 10.0625 1.64746 10.901 1.10742 12.0602C0.289064 13.8181 0.404299 16.1691 1.41504 18.3576C2.81445 21.3863 5.55762 23.4219 8.24024 23.4219C8.80733 23.4223 9.36947 23.3269 9.89746 23.1406Z" fill="url(#paint0_linear_3598_1002)"/>
<defs>
<linearGradient id="paint0_linear_3598_1002" x1="24.0004" y1="0.21698" x2="24.0004" y2="36.7848" gradientUnits="userSpaceOnUse">
<stop stop-color="#3BF258"/>
<stop offset="1" stop-color="#228C33"/>
</linearGradient>
</defs>
</svg>
