<svg width="48" height="37" viewBox="0 0 48 37" fill="none" xmlns="http://www.w3.org/2000/svg">
<path d="M47.2625 12.062C46.7205 10.9027 45.8201 10.0669 44.658 9.64589L44.6423 9.64061C44.1134 9.45415 43.5502 9.35875 42.9822 9.35936H42.9197C40.2595 9.3954 37.5437 11.4301 36.1628 14.4227C35.1501 16.6112 35.0339 18.9649 35.8523 20.7192C36.3933 21.8794 37.2957 22.7152 38.4626 23.1362L38.4753 23.1406C39.0043 23.3269 39.5674 23.4223 40.1355 23.4219C42.821 23.4219 45.5652 21.3872 46.9714 18.355C47.9714 16.1691 48.0818 13.8172 47.2625 12.062ZM36.6335 24.9696C35.0994 24.1399 33.6492 23.3551 32.7019 21.9453C30.0886 18.043 28.5105 15.6875 24.3728 15.6875C20.2351 15.6875 18.6531 18.043 16.0339 21.9453C15.0847 23.3568 13.6316 24.1426 12.0925 24.9758C10.3279 25.9303 8.50464 26.9164 7.71753 28.857C7.41154 29.5566 7.25739 30.3025 7.26343 31.0543C7.26343 34.214 9.9978 36.7848 13.3572 36.7848C15.0906 36.7848 16.9353 36.2442 18.8875 35.6721C20.7644 35.1219 22.7048 34.5532 24.3826 34.5532C26.0603 34.5532 27.9958 35.1219 29.866 35.6721C31.8142 36.2407 33.6501 36.7812 35.3884 36.7812C38.7429 36.7812 41.4724 34.2104 41.4724 31.0508C41.4752 30.2984 41.3177 29.5525 41.0085 28.8535C40.2214 26.9111 38.3972 25.9241 36.6335 24.9696ZM14.0212 12.5981C15.1834 13.9103 16.658 14.6328 18.1736 14.6328C18.3805 14.6328 18.5871 14.619 18.7917 14.5915C21.9529 14.1731 23.9226 10.7015 23.2761 6.68134C23.0056 4.9912 22.283 3.41708 21.2478 2.24989C20.0876 0.94032 18.6111 0.218738 17.0964 0.218738C16.8895 0.218744 16.6829 0.232551 16.4783 0.260047C13.3171 0.678406 11.3474 4.15009 11.9939 8.1702C12.2634 9.8577 12.9861 11.4301 14.0212 12.5981ZM29.9548 14.5915C30.1595 14.619 30.3661 14.6328 30.573 14.6328C32.0896 14.6328 33.5632 13.9103 34.7253 12.5981C35.7595 11.4301 36.4783 9.8577 36.7517 8.16845C37.3982 4.15009 35.4285 0.678406 32.2673 0.258289C32.0627 0.230793 31.8561 0.216986 31.6492 0.21698C30.1345 0.218738 28.658 0.94032 27.4978 2.24989C26.4626 3.41708 25.74 4.9912 25.4705 6.68309C24.824 10.7015 26.7937 14.1731 29.9548 14.5915ZM10.2703 23.1406L10.2839 23.1362C11.449 22.7152 12.3503 21.8803 12.8904 20.721C13.7087 18.9632 13.5935 16.6121 12.5828 14.4236C11.1834 11.3949 8.44019 9.35936 5.75757 9.35936C5.18949 9.35862 4.62632 9.45403 4.09741 9.64061L4.08374 9.64501C2.92163 10.0625 2.02027 10.901 1.48023 12.0602C0.661867 13.8181 0.777101 16.1691 1.78784 18.3576C3.18726 21.3863 5.93042 23.4219 8.61304 23.4219C9.18014 23.4223 9.74228 23.3269 10.2703 23.1406Z" fill="url(#paint0_linear_3598_1027)"/>
<defs>
<linearGradient id="paint0_linear_3598_1027" x1="0.938965" y1="18.5009" x2="47.8075" y2="18.5009" gradientUnits="userSpaceOnUse">
<stop stop-color="#FF3508"/>
<stop offset="1" stop-color="#992005"/>
</linearGradient>
</defs>
</svg>
