<svg width="48" height="37" viewBox="0 0 48 37" fill="none" xmlns="http://www.w3.org/2000/svg">
<path d="M46.5583 12.062C46.0164 10.9027 45.116 10.0669 43.9539 9.64589L43.9382 9.64061C43.4093 9.45415 42.8461 9.35875 42.2781 9.35936H42.2156C39.5554 9.3954 36.8396 11.4301 35.4587 14.4227C34.446 16.6112 34.3298 18.9649 35.1482 20.7192C35.6892 21.8794 36.5916 22.7152 37.7585 23.1362L37.7712 23.1406C38.3002 23.3269 38.8633 23.4223 39.4314 23.4219C42.1169 23.4219 44.8611 21.3872 46.2673 18.355C47.2673 16.1691 47.3777 13.8172 46.5583 12.062ZM35.9294 24.9696C34.3953 24.1399 32.9451 23.3551 31.9978 21.9453C29.3845 18.043 27.8064 15.6875 23.6687 15.6875C19.531 15.6875 17.949 18.043 15.3298 21.9453C14.3806 23.3568 12.9275 24.1426 11.3884 24.9758C9.62378 25.9303 7.80054 26.9164 7.01343 28.857C6.70744 29.5566 6.55329 30.3025 6.55933 31.0543C6.55933 34.214 9.2937 36.7848 12.6531 36.7848C14.3865 36.7848 16.2312 36.2442 18.1834 35.6721C20.0603 35.1219 22.0007 34.5532 23.6785 34.5532C25.3562 34.5532 27.2917 35.1219 29.1619 35.6721C31.1101 36.2407 32.946 36.7812 34.6843 36.7812C38.0388 36.7812 40.7683 34.2104 40.7683 31.0508C40.7711 30.2984 40.6136 29.5525 40.3044 28.8535C39.5173 26.9111 37.6931 25.9241 35.9294 24.9696ZM13.3171 12.5981C14.4792 13.9103 15.9539 14.6328 17.4695 14.6328C17.6764 14.6328 17.883 14.619 18.0876 14.5915C21.2488 14.1731 23.2185 10.7015 22.572 6.68134C22.3015 4.9912 21.5789 3.41708 20.5437 2.24989C19.3835 0.94032 17.907 0.218738 16.3923 0.218738C16.1854 0.218744 15.9788 0.232551 15.7742 0.260047C12.613 0.678406 10.6433 4.15009 11.2898 8.1702C11.5593 9.8577 12.282 11.4301 13.3171 12.5981ZM29.2507 14.5915C29.4554 14.619 29.662 14.6328 29.8689 14.6328C31.3855 14.6328 32.8591 13.9103 34.0212 12.5981C35.0554 11.4301 35.7742 9.8577 36.0476 8.16845C36.6941 4.15009 34.7244 0.678406 31.5632 0.258289C31.3586 0.230793 31.152 0.216986 30.9451 0.21698C29.4304 0.218738 27.9539 0.94032 26.7937 2.24989C25.7585 3.41708 25.0359 4.9912 24.7664 6.68309C24.1199 10.7015 26.0896 14.1731 29.2507 14.5915ZM9.56616 23.1406L9.57983 23.1362C10.7449 22.7152 11.6462 21.8803 12.1863 20.721C13.0046 18.9632 12.8894 16.6121 11.8787 14.4236C10.4792 11.3949 7.73608 9.35936 5.05347 9.35936C4.48539 9.35862 3.92222 9.45403 3.39331 9.64061L3.37964 9.64501C2.21753 10.0625 1.31616 10.901 0.776125 12.0602C-0.0422344 13.8181 0.0729999 16.1691 1.08374 18.3576C2.48316 21.3863 5.22632 23.4219 7.90894 23.4219C8.47603 23.4223 9.03818 23.3269 9.56616 23.1406Z" fill="url(#paint0_linear_3598_1022)"/>
<defs>
<linearGradient id="paint0_linear_3598_1022" x1="23.6691" y1="0.21698" x2="23.6691" y2="36.7848" gradientUnits="userSpaceOnUse">
<stop stop-color="#EBFF08"/>
<stop offset="1" stop-color="#8D9905"/>
</linearGradient>
</defs>
</svg>
