<svg width="118" height="95" viewBox="0 0 118 95" fill="none" xmlns="http://www.w3.org/2000/svg">
<g filter="url(#filter0_d_3481_85)">
<path d="M17.0974 35.6841C17.0974 30.2153 25.9573 24.4058 24.5592 19.1187V19.1187C22.2238 10.2875 26.6128 12.5121 30.223 15.4119C32.953 17.6048 36.2415 19.1187 39.7432 19.1187H68.9706C72.0873 19.1187 75.0643 17.9347 77.5931 16.1128C81.6164 13.2141 86.9581 10.4198 83.5075 19.1187V19.1187C81.1786 24.9901 91.7155 29.7728 91.7155 36.0892V53.3553C91.7155 60.4199 85.9885 66.147 78.9238 66.147H29.2509C22.5387 66.147 17.0974 60.7056 17.0974 53.9934V35.6841Z" fill="#DEAA13"/>
</g>
<g clip-path="url(#clip0_3481_85)">
<path fill-rule="evenodd" clip-rule="evenodd" d="M45.6184 31.8265C40.6427 32.7531 38.725 38.7528 42.3156 42.1593C46.3872 46.022 53.3049 43.3061 53.3049 37.8449C53.3049 33.9205 49.6674 31.0724 45.6184 31.8265ZM59.3327 31.7972C53.8499 32.864 52.1973 39.4353 56.5958 42.6794C61.2805 46.1347 67.9365 42.2151 66.8458 36.6434C66.2156 33.4242 62.6827 31.1454 59.3327 31.7972ZM35.8335 40.8895C30.6292 41.8839 30.4787 49.0435 35.638 50.1916C38.4334 50.8136 41.0612 49.3734 41.8068 46.8106C42.8061 43.3756 39.5766 40.1743 35.8335 40.8895ZM69.9665 40.8907C66.4905 41.5544 64.8501 45.4157 66.8323 48.2675C68.9384 51.2973 74.109 50.901 75.6712 47.59C77.3894 43.9484 74.1117 40.0992 69.9665 40.8907ZM51.554 44.7887C47.5694 45.1476 43.9624 46.757 42.2064 48.9595C42.0044 49.2128 41.6777 49.5721 41.4804 49.7578C38.1805 52.8632 38.6022 57.2605 42.3251 58.5673C44.03 59.1657 45.3882 58.9334 48.8809 57.4461C51.4066 56.3705 51.7852 56.2569 52.9599 56.2208C55.1267 56.1544 55.569 56.2635 58.4251 57.5687C61.6502 59.0426 63.0023 59.2787 64.7319 58.6698C68.4153 57.373 69.0262 53.1137 65.9882 49.9113C65.7639 49.6749 65.4916 49.3571 65.383 49.2052C63.1881 46.1329 57.3453 44.2669 51.554 44.7887Z" fill="black"/>
</g>
<defs>
<filter id="filter0_d_3481_85" x="0.0417709" y="-1.00939" width="117.257" height="95.9377" filterUnits="userSpaceOnUse" color-interpolation-filters="sRGB">
<feFlood flood-opacity="0" result="BackgroundImageFix"/>
<feColorMatrix in="SourceAlpha" type="matrix" values="0 0 0 0 0 0 0 0 0 0 0 0 0 0 0 0 0 0 127 0" result="hardAlpha"/>
<feOffset dx="4.2639" dy="7.46182"/>
<feGaussianBlur stdDeviation="10.6597"/>
<feComposite in2="hardAlpha" operator="out"/>
<feColorMatrix type="matrix" values="0 0 0 0 0 0 0 0 0 0 0 0 0 0 0 0 0 0 0.25 0"/>
<feBlend mode="normal" in2="BackgroundImageFix" result="effect1_dropShadow_3481_85"/>
<feBlend mode="normal" in="SourceGraphic" in2="effect1_dropShadow_3481_85" result="shape"/>
</filter>
<clipPath id="clip0_3481_85">
<rect width="44.252" height="31.4402" fill="white" transform="translate(31.8481 29.6164)"/>
</clipPath>
</defs>
</svg>
