<svg width="44" height="43" viewBox="0 0 44 43" fill="none" xmlns="http://www.w3.org/2000/svg">
<g clip-path="url(#clip0_3489_98)">
<path fill-rule="evenodd" clip-rule="evenodd" d="M21.9186 4.06989C12.2086 4.06989 4.33759 11.9409 4.33759 21.6509C4.33759 31.3609 12.2086 39.232 21.9186 39.232C31.6286 39.232 39.4997 31.3609 39.4997 21.6509C39.4997 11.9409 31.6286 4.06989 21.9186 4.06989ZM15.7653 17.2557C15.7653 16.4476 15.9244 15.6474 16.2337 14.9009C16.5429 14.1543 16.9962 13.476 17.5675 12.9046C18.1389 12.3332 18.8173 11.8799 19.5638 11.5707C20.3104 11.2615 21.1106 11.1023 21.9186 11.1023C22.7267 11.1023 23.5269 11.2615 24.2734 11.5707C25.02 11.8799 25.6983 12.3332 26.2697 12.9046C26.8411 13.476 27.2944 14.1543 27.6036 14.9009C27.9128 15.6474 28.072 16.4476 28.072 17.2557C28.072 18.8876 27.4237 20.4528 26.2697 21.6068C25.1157 22.7607 23.5506 23.409 21.9186 23.409C20.2867 23.409 18.7215 22.7607 17.5675 21.6068C16.4136 20.4528 15.7653 18.8876 15.7653 17.2557ZM32.9208 30.4133C31.6048 32.0688 29.9317 33.4055 28.0266 34.3237C26.1214 35.2419 24.0335 35.7177 21.9186 35.7158C19.8038 35.7177 17.7158 35.2419 15.8107 34.3237C13.9055 33.4055 12.2325 32.0688 10.9164 30.4133C13.7663 28.3686 17.6552 26.9252 21.9186 26.9252C26.182 26.9252 30.071 28.3686 32.9208 30.4133Z" fill="black"/>
</g>
<defs>
<clipPath id="clip0_3489_98">
<rect width="42.1945" height="42.1945" fill="white" transform="translate(0.821411 0.55365)"/>
</clipPath>
</defs>
</svg>
