<svg width="44" height="43" viewBox="0 0 44 43" fill="none" xmlns="http://www.w3.org/2000/svg">
<path fill-rule="evenodd" clip-rule="evenodd" d="M17.4677 6.01431C17.8844 6.22291 18.2012 6.5884 18.3485 7.03047C18.4959 7.47255 18.4617 7.95504 18.2535 8.37193L16.0102 12.8604H27.902L25.6587 8.37193C25.5469 8.16469 25.4779 7.93712 25.4558 7.70271C25.4337 7.4683 25.4588 7.23183 25.5298 7.00734C25.6008 6.78285 25.7162 6.5749 25.8691 6.39585C26.022 6.21679 26.2093 6.07026 26.4199 5.96497C26.6305 5.85967 26.8601 5.79775 27.095 5.78287C27.33 5.76799 27.5656 5.80047 27.7878 5.87837C28.01 5.95627 28.2143 6.078 28.3885 6.23635C28.5628 6.3947 28.7034 6.58644 28.8022 6.80018L31.8331 12.8604H36.0209C36.9535 12.8604 37.8479 13.2308 38.5073 13.8902C39.1667 14.5497 39.5371 15.444 39.5371 16.3766V18.1347C39.5373 18.8049 39.3459 19.4611 38.9855 20.0261C38.6251 20.5911 38.1107 21.0414 37.503 21.3239L34.8325 33.344C34.5721 34.5153 33.9202 35.5627 32.9843 36.3135C32.0484 37.0643 30.8846 37.4736 29.6847 37.4738H14.2275C13.0274 37.4735 11.8633 37.064 10.9274 36.3129C9.99153 35.5617 9.33976 34.5138 9.07975 33.3423L6.40743 21.3239C5.80003 21.0412 5.28605 20.5908 4.92599 20.0258C4.56593 19.4608 4.37479 18.8047 4.37506 18.1347V16.3766C4.37506 15.444 4.74552 14.5497 5.40493 13.8902C6.06435 13.2308 6.95871 12.8604 7.89127 12.8604H12.0791L15.11 6.80018C15.3186 6.38349 15.6841 6.06666 16.1262 5.9193C16.5683 5.77194 17.0508 5.80611 17.4677 6.01431ZM30.7115 16.3766H36.0209V18.1347H7.89127V16.3766H13.2007H30.7115Z" fill="black"/>
</svg>
