<svg xmlns="http://www.w3.org/2000/svg" viewBox="0 0 74.62 53.3">
<path fill="#DEAA13" d="M74.62,23.24v17.27c0,7.06-5.73,12.79-12.79,12.79H12.15C5.44,53.3,0,47.86,0,41.15V22.84 c0-5.47,8.86-11.28,7.46-16.57c-2.34-8.83,2.05-6.61,5.66-3.71c2.73,2.19,6.02,3.71,9.52,3.71h29.23c3.12,0,6.09-1.18,8.62-3.01 c4.02-2.9,9.36-5.69,5.91,3.01C64.08,12.14,74.62,16.92,74.62,23.24z"/>
<path d="M42.24,18.95c3.35-0.65,6.88,1.63,7.51,4.85c1.09,5.57-5.57,9.49-10.25,6.04C35.1,26.59,36.75,20.02,42.24,18.95z M36.21,25 c0-3.92-3.64-6.77-7.69-6.02c-4.98,0.93-6.89,6.93-3.3,10.33C29.29,33.17,36.21,30.46,36.21,25z M48.29,36.36 c-2.19-3.07-8.04-4.94-13.83-4.42c-3.98,0.36-7.59,1.97-9.35,4.17c-0.2,0.25-0.53,0.61-0.73,0.8c-3.3,3.11-2.88,7.5,0.84,8.81 c1.7,0.6,3.06,0.37,6.56-1.12c2.53-1.08,2.9-1.19,4.08-1.23c2.17-0.07,2.61,0.04,5.47,1.35c3.23,1.47,4.58,1.71,6.31,1.1 c3.68-1.3,4.29-5.56,1.26-8.76C48.67,36.83,48.39,36.51,48.29,36.36z M52.87,28.04c-3.48,0.66-5.12,4.53-3.13,7.38 c2.11,3.03,7.28,2.63,8.84-0.68C60.29,31.1,57.01,27.25,52.87,28.04z M24.71,33.96c1-3.43-2.23-6.64-5.97-5.92 c-5.2,0.99-5.35,8.15-0.2,9.3C21.34,37.97,23.96,36.53,24.71,33.96z"/>
</svg>