<svg width="2000" height="725" viewBox="0 0 1520 725" fill="none" preserveAspectRatio="none" xmlns="http://www.w3.org/2000/svg">
<path fill-rule="evenodd" clip-rule="evenodd" d="M-0.5 0.00012207L84.3667 37.135C167.967 74.27 337.7 148.54 506.167 167.107C674.633 185.675 844.367 148.54 1012.83 111.405C1181.3 74.27 1351.03 37.135 1434.63 18.5676L1519.5 0.00012207V389.917H1434.63C1351.03 389.917 1181.3 389.917 1012.83 389.917C844.367 389.917 674.633 389.917 506.167 389.917C337.7 389.917 167.967 389.917 84.3667 389.917H-0.5V0.00012207Z" fill="#E95C5C"/>
<path fill-rule="evenodd" clip-rule="evenodd" d="M-0.5 669.153L84.3667 678.46C167.967 687.768 337.7 706.384 506.167 669.153C674.633 631.921 844.367 538.842 1012.83 538.842C1181.3 538.842 1351.03 631.921 1434.63 678.46L1519.5 725V389.915H1434.63C1351.03 389.915 1181.3 389.915 1012.83 389.915C844.367 389.915 674.633 389.915 506.167 389.915C337.7 389.915 167.967 389.915 84.3667 389.915H-0.5V669.153Z" fill="#E95C5C"/>
</svg>
