<svg width="20" height="20" viewBox="0 0 20 20" fill="none" xmlns="http://www.w3.org/2000/svg">
<path d="M3.07254 9.39418C2.99299 9.31899 2.8994 9.26022 2.79712 9.22121C2.69485 9.18219 2.58589 9.16371 2.47647 9.1668C2.36706 9.1699 2.25932 9.19451 2.15941 9.23925C2.05951 9.28398 1.96939 9.34795 1.89421 9.42751C1.81903 9.50707 1.76025 9.60066 1.72124 9.70293C1.68223 9.80521 1.66374 9.91416 1.66684 10.0236C1.66993 10.133 1.69455 10.2407 1.73928 10.3406C1.78401 10.4405 1.84799 10.5307 1.92754 10.6058L9.42754 17.6892C9.58227 17.8355 9.78712 17.917 10 17.917C10.213 17.917 10.4178 17.8355 10.5725 17.6892L18.0734 10.6058C18.1547 10.5312 18.2203 10.4411 18.2665 10.3408C18.3127 10.2405 18.3385 10.1321 18.3424 10.0217C18.3463 9.91141 18.3283 9.8014 18.2894 9.6981C18.2504 9.59481 18.1913 9.50028 18.1155 9.42001C18.0397 9.33974 17.9487 9.27534 17.8478 9.23053C17.7469 9.18573 17.6381 9.16142 17.5278 9.15901C17.4174 9.15661 17.3076 9.17616 17.2049 9.21653C17.1021 9.2569 17.0084 9.31728 16.9292 9.39418L10 15.9375L3.07254 9.39418Z" fill="black"/>
</svg>
